<?xml version="1.0" ?><svg data-name="Layer 1" id="Layer_1" viewBox="0 0 272 272" xmlns="http://www.w3.org/2000/svg"><defs><style>.cls-1{fill:#fec107;}.cls-2{fill:#fff176;}.cls-3{fill:#ffd54f;}</style></defs><title/><circle class="cls-1" cx="136" cy="136" r="128"/><path class="cls-2" d="M136,256A120,120,0,1,1,256,136,120.14,120.14,0,0,1,136,256Z"/><path class="cls-3" d="M126.14,136.76,51.24,164a18.29,18.29,0,0,1-24.45-14.86,110.85,110.85,0,0,1-.22-24.35,18.34,18.34,0,0,1,24.52-15.37Z"/><path class="cls-3" d="M132.11,142.4,104,219.57a18.29,18.29,0,0,1-26.93,9.29,110.79,110.79,0,0,1-31.6-30.41,18.35,18.35,0,0,1,8.77-27.72Z"/><path class="cls-3" d="M133.7,131.71,53.43,102.49a18.3,18.3,0,0,1-9.08-27.25A110.79,110.79,0,0,1,77.8,42.7,18.32,18.32,0,0,1,104.69,52Z"/><path class="cls-3" d="M138.75,124.16,112.07,50.85a18.29,18.29,0,0,1,15.67-24.54Q131.83,26,136,26a110.42,110.42,0,0,1,14.45.95,18.33,18.33,0,0,1,14.78,24.45Z"/><path class="cls-3" d="M138.75,145.6,166,220.5a18.35,18.35,0,0,1-14.73,24.44A110.4,110.4,0,0,1,136,246q-4.6,0-9.1-.37a18.32,18.32,0,0,1-15.63-24.54Z"/><path class="cls-3" d="M146,144l72.11,26.25a18.33,18.33,0,0,1,8.93,27.5,110.8,110.8,0,0,1-26.78,27.53,18.3,18.3,0,0,1-27.84-8.69Z"/><path class="cls-3" d="M144.38,130.12,171.73,55a18.33,18.33,0,0,1,27.82-8.71,110.82,110.82,0,0,1,28.36,29.36,18.36,18.36,0,0,1-9,27.38Z"/><path class="cls-3" d="M246,136a110.6,110.6,0,0,1-.66,12.1,18.36,18.36,0,0,1-24.51,15.32l-73.25-26.66L221,110a18.32,18.32,0,0,1,24.52,15.4Q246,130.66,246,136Z"/><circle class="cls-2" cx="138" cy="136" r="16"/></svg>